<svg width="24" height="24" viewBox="0 0 24 24" fill="none" xmlns="http://www.w3.org/2000/svg">
<path fill-rule="evenodd" clip-rule="evenodd" d="M5.22366 12.7106L10.2796 17.7667C10.4239 17.911 10.6163 17.9902 10.8214 17.9902C11.0267 17.9902 11.219 17.9109 11.3633 17.7667L11.8223 17.3075C11.9665 17.1634 12.046 16.971 12.046 16.7657C12.046 16.5606 11.9665 16.3617 11.8223 16.2176L8.87277 13.2615L18.2437 13.2615C18.6662 13.2615 19 12.9308 19 12.5082L19 11.859C19 11.4364 18.6662 11.0723 18.2437 11.0723L8.8393 11.0723L11.8222 8.09975C11.9664 7.95542 12.0459 7.76819 12.0459 7.56297C12.0459 7.35798 11.9664 7.16801 11.8222 7.0238L11.3632 6.56612C11.2188 6.4218 11.0266 6.34315 10.8213 6.34315C10.6162 6.34315 10.4238 6.42282 10.2795 6.56715L5.22355 11.6231C5.07888 11.7679 4.99932 11.9611 4.99989 12.1666C4.99943 12.3727 5.07888 12.5661 5.22366 12.7106Z" fill="#20242B"/>
</svg>
